<svg xmlns="http://www.w3.org/2000/svg" viewBox="883.75 131.75 366.5 786.5" width="366.5" height="786.5" fill="none"><rect x="887.75" y="135.75" width="358.5" height="778.5" fill="white" />
<rect x="887.75" y="135.75" width="358.5" height="778.5" stroke="#333333" stroke-width="1.5" />
<path d="M911 255H1033" stroke="#333333" stroke-width="1.5" stroke-linecap="square" />
<path d="M911 273H979" stroke="#333333" stroke-width="1.5" stroke-linecap="square" />
<path d="M1146.21 300H989V459.212H1146.21V300Z" stroke="#333333" stroke-width="1.5" stroke-linecap="square" />
<path d="M990 301L1146 459" stroke="#333333" stroke-width="1.5" stroke-linecap="square" />
<path d="M1145 301L990 458" stroke="#333333" stroke-width="1.5" stroke-linecap="square" />
<path d="M1016.51 483.094H1118.7" stroke="#333333" stroke-width="1.5" stroke-linecap="square" />
<path d="M1036.16 499H1099.05" stroke="#333333" stroke-width="1.5" stroke-linecap="square" />
<path d="M1223 532H911V598H1223V532Z" stroke="#333333" stroke-width="1.5" stroke-linecap="square" />
<path d="M931 553H1057" stroke="#333333" stroke-width="1.5" stroke-linecap="square" />
<path d="M931 574H1005" stroke="#333333" stroke-width="1.5" stroke-linecap="square" />
<path d="M1199 551H1177V573H1199V551Z" stroke="#333333" stroke-width="1.5" stroke-linecap="square" />
<path d="M1059 618H911V730H1059V618Z" stroke="#333333" stroke-width="1.5" stroke-linecap="square" />
<path d="M971 636H929V678H971V636Z" stroke="#333333" stroke-width="1.5" stroke-linecap="square" />
<path d="M929 636L971 678" stroke="#333333" stroke-width="1.5" stroke-linecap="square" />
<path d="M971 636L929 678" stroke="#333333" stroke-width="1.5" stroke-linecap="square" />
<path d="M985 643H1035" stroke="#333333" stroke-width="1.5" stroke-linecap="square" />
<path d="M985 663H1019" stroke="#333333" stroke-width="1.5" stroke-linecap="square" />
<path d="M929 703H1033" stroke="#333333" stroke-width="1.5" stroke-linecap="square" />
<path d="M1223 618H1075V730H1223V618Z" stroke="#333333" stroke-width="1.5" stroke-linecap="square" />
<path d="M1135 636H1093V678H1135V636Z" stroke="#333333" stroke-width="1.5" stroke-linecap="square" />
<path d="M1093 636L1135 678" stroke="#333333" stroke-width="1.5" stroke-linecap="square" />
<path d="M1135 636L1093 678" stroke="#333333" stroke-width="1.5" stroke-linecap="square" />
<path d="M1149 643H1201" stroke="#333333" stroke-width="1.5" stroke-linecap="square" />
<path d="M1149 663H1185" stroke="#333333" stroke-width="1.5" stroke-linecap="square" />
<path d="M1093 703H1199" stroke="#333333" stroke-width="1.5" stroke-linecap="square" />
<path d="M1123 751H911V805H1123V751Z" stroke="#333333" stroke-width="1.5" stroke-linecap="square" />
<path d="M929 769H1045" stroke="#333333" stroke-width="1.5" stroke-linecap="square" />
<path d="M929 787H999" stroke="#333333" stroke-width="1.5" stroke-linecap="square" />
<path d="M1223 751H1139V805H1223V751Z" stroke="#333333" stroke-width="1.5" stroke-linecap="square" />
<path d="M911 839H1223" stroke="#333333" stroke-width="1.5" stroke-linecap="square" />
<path d="M951 862H927V886H951V862Z" stroke="#333333" stroke-width="1.5" stroke-linecap="square" />
<path d="M1037 862H1013V886H1037V862Z" stroke="#333333" stroke-width="1.5" stroke-linecap="square" />
<path d="M1123 862H1099V886H1123V862Z" stroke="#333333" stroke-width="1.5" stroke-linecap="square" />
<path d="M1207 862H1183V886H1207V862Z" stroke="#333333" stroke-width="1.5" stroke-linecap="square" />
<rect x="911" y="158.25" width="58" height="1.5" fill="#333333" />
<rect x="1165" y="158.25" width="58" height="1.5" fill="#333333" />
<rect x="911.75" y="185.75" width="22.5" height="18.5" stroke="#333333" stroke-width="1.5" />
<rect x="915" y="191.25" width="16" height="1.5" fill="#333333" />
<rect x="915" y="197.25" width="16" height="1.5" fill="#333333" />
<rect x="1029" y="194.25" width="76" height="1.5" fill="#333333" />
<rect x="1199.75" y="183.75" width="22.5" height="22.5" stroke="#333333" stroke-width="1.5" />
<rect x="911" y="226.25" width="312" height="1.5" fill="#333333" />
</svg>